<mxfile host="app.diagrams.net" modified="2021-01-19T09:38:13.648Z" agent="5.0 (Macintosh; Intel Mac OS X 10_15_7) AppleWebKit/537.36 (KHTML, like Gecko) Chrome/87.0.4280.88 Safari/537.36" etag="IctBgkUjsjXNNmAGC8o_" version="14.1.9" type="github">
  <diagram id="XRcGwd75u94CFjbTboYJ" name="Page-1">
    <mxGraphModel dx="1298" dy="834" grid="0" gridSize="10" guides="1" tooltips="1" connect="1" arrows="1" fold="1" page="1" pageScale="1" pageWidth="1169" pageHeight="1654" math="0" shadow="0">
      <root>
        <mxCell id="0" />
        <mxCell id="1" parent="0" />
        <mxCell id="Mh-xy4KkmHsxOrBDweZh-7" value="" style="shape=flexArrow;endArrow=classic;html=1;fontSize=14;fontColor=#FFFFFF;fillColor=#0e8ace;strokeColor=none;" edge="1" parent="1">
          <mxGeometry width="50" height="50" relative="1" as="geometry">
            <mxPoint x="70" y="229.5" as="sourcePoint" />
            <mxPoint x="860" y="230" as="targetPoint" />
            <Array as="points">
              <mxPoint x="240" y="229.5" />
            </Array>
          </mxGeometry>
        </mxCell>
        <mxCell id="Mh-xy4KkmHsxOrBDweZh-1" value="应用" style="shape=step;perimeter=stepPerimeter;whiteSpace=wrap;html=1;fixedSize=1;fillColor=#002e58;strokeColor=#FFFFFF;fontColor=#FFFFFF;fontStyle=1;fontSize=14;" vertex="1" parent="1">
          <mxGeometry x="110" y="190" width="120" height="80" as="geometry" />
        </mxCell>
        <mxCell id="Mh-xy4KkmHsxOrBDweZh-2" value="变更" style="shape=step;perimeter=stepPerimeter;whiteSpace=wrap;html=1;fixedSize=1;fontSize=14;fontColor=#FFFFFF;fontStyle=1;strokeColor=#FFFFFF;fillColor=#002e58;" vertex="1" parent="1">
          <mxGeometry x="250" y="190" width="120" height="80" as="geometry" />
        </mxCell>
        <mxCell id="Mh-xy4KkmHsxOrBDweZh-3" value="开发" style="shape=step;perimeter=stepPerimeter;whiteSpace=wrap;html=1;fixedSize=1;fontSize=14;fontColor=#FFFFFF;fontStyle=1;strokeColor=#FFFFFF;fillColor=#002e58;" vertex="1" parent="1">
          <mxGeometry x="390" y="190" width="120" height="80" as="geometry" />
        </mxCell>
        <mxCell id="Mh-xy4KkmHsxOrBDweZh-4" value="构建" style="shape=step;perimeter=stepPerimeter;whiteSpace=wrap;html=1;fixedSize=1;fontSize=14;fontColor=#FFFFFF;fontStyle=1;strokeColor=#FFFFFF;fillColor=#002e58;" vertex="1" parent="1">
          <mxGeometry x="530" y="190" width="120" height="80" as="geometry" />
        </mxCell>
        <mxCell id="Mh-xy4KkmHsxOrBDweZh-5" value="部署" style="shape=step;perimeter=stepPerimeter;whiteSpace=wrap;html=1;fixedSize=1;fontSize=14;fontColor=#FFFFFF;fontStyle=1;strokeColor=#FFFFFF;fillColor=#002e58;" vertex="1" parent="1">
          <mxGeometry x="670" y="190" width="120" height="80" as="geometry" />
        </mxCell>
      </root>
    </mxGraphModel>
  </diagram>
</mxfile>
